<?xml version="1.0" ?>
<!-- Uploaded to: SVG Repo, www.svgrepo.com, Generator: SVG Repo Mixer Tools -->
<svg width="800px" height="800px" viewBox="0 0 32 32" xmlns="http://www.w3.org/2000/svg">
<defs>
<style>.cls-1{fill:#04009a;}.cls-2{fill:#77acf1;}</style>
</defs>
<g data-name="17. Target" id="_17._Target">
<path class="cls-1" d="M31,15H30A14,14,0,0,0,17,2.05V1a1,1,0,0,0-2,0v1A14,14,0,0,0,2.05,15H1a1,1,0,0,0,0,2h1A14,14,0,0,0,15,30V31a1,1,0,0,0,2,0V30A14,14,0,0,0,30,17H31a1,1,0,0,0,0-2ZM17,28V27a1,1,0,0,0-2,0V28A12,12,0,0,1,4.05,17H5a1,1,0,0,0,0-2h-1A12,12,0,0,1,15,4.05V5a1,1,0,0,0,2,0v-1A12,12,0,0,1,28,15H27a1,1,0,0,0,0,2H28A12,12,0,0,1,17,28Z"/>
<path class="cls-2" d="M14,10h4a0,0,0,0,1,0,0v3a1,1,0,0,1-1,1H15a1,1,0,0,1-1-1V10A0,0,0,0,1,14,10Z"/>
<path class="cls-1" d="M20.29,23H11.71A2.72,2.72,0,0,1,9,20.29V11.71A2.72,2.72,0,0,1,11.71,9h8.58A2.72,2.72,0,0,1,23,11.71v8.58A2.72,2.72,0,0,1,20.29,23ZM11.71,11a.71.71,0,0,0-.71.71v8.58a.71.71,0,0,0,.71.71h8.58a.71.71,0,0,0,.71-.71V11.71a.71.71,0,0,0-.71-.71Z"/>
<path class="cls-1" d="M15,19H14a1,1,0,0,1,0-2h1a1,1,0,0,1,0,2Z"/>
</g>
</svg>